{"title":"Spijt! 2013 DVD9rip Dutch English Klam","uid":10096072,"size":1849933199,"categoryP":"video","categoryS":"movies","magnet":"?xt=urn:btih:98790729895ca2033c9a8201a3531fd31ce24740&amp;dn=Spijt%21+2013+DVD9rip+Dutch+English+Klam&amp;tr=udp%3A%2F%2Ftracker.openbittorrent.com%3A80&amp;tr=udp%3A%2F%2Fopen.demonii.com%3A1337&amp;tr=udp%3A%2F%2Ftracker.coppersurfer.tk%3A6969&amp;tr=udp%3A%2F%2Fexodus.desync.com%3A6969","seeders":1,"leechers":0,"uploader":"Klambake","files":-1,"time":1399298535,"description":"With: Stefan Collier, Robin Boissevain and Dorus Witte\n\nNederlands gesproken, Engelse ondertitels los bijgeleverd!\nJochem voelt zich niet erg gelukkig in de tweede klas. Hij is het mikpunt van getreiter. David doet er niet aan mee, maar hij durft er niks van te zeggen. De klassenleraar, die gymnastiek geeft, grijpt ook niet in. Hij heeft een hekel aan dikke Jochem. Jochem lijkt zich niets aan te trekken van de pesterijen, die elke dag erger worden. Als de klas weer eens dubbel ligt, lacht hij zelf mee. Maar op een ochtend krijgen ze van de rector te horen dat Jochem na de klassenavond niet is thuisgekomen.\n\nDutch spoken, with soft English subs!\nDavid's classmate Jochem is bullied because he is too heavy. Although David increasingly stands up to the bullying, it turns out to be too late.\n &lt;a href=&quot;\nhttp://www.imdb.com/title/tt2472432&quot; rel=&quot;nofollow&quot; target=&quot;_NEW&quot;&gt;\nhttp://www.imdb.com/title/tt2472432&lt;/a&gt;\t\n\n--------------------- Dutch Friends 4ever ---------------------\n---------------------------------------------------------------\n- Bezoek ook eens mijn vrienden op: &lt;a href=&quot; http://www.Film-Test.nl&quot; rel=&quot;nofollow&quot; target=&quot;_NEW&quot;&gt; http://www.Film-Test.nl&lt;/a&gt; --\n----- voor mijn Nederlandse Sync. ondertitels ---- en meer ----\n------- http://www.Film-Test.nl ---- Over Films en meer -------\n---------------------------------------------------------------\n\nGeneral:\n\nComplete name                            : SpijtSpijt!.avi\nFormat                                   : AVI\nFormat/Info                              : Audio Video Interleave\nFile size                                : 1.72 GiB\nDuration                                 : 1h 29mn\nOverall bit rate                         : 2 762 Kbps\n\nVideo:\n\nFormat                                   : MPEG-4 Visual\nFormat profile                           : Simple@L3\nFormat settings, BVOP                    : No\nFormat settings, QPel                    : No\nFormat settings, GMC                     : No warppoints\nFormat settings, Matrix                  : Default (H.263)\nCodec ID                                 : XVID\nCodec ID/Hint                            : XviD\nDuration                                 : 1h 29mn\nBit rate                                 : 2 303 Kbps\nWidth                                    : 720 pixels\nHeight                                   : 304 pixels\nDisplay aspect ratio                     : 2.35:1\nFrame rate                               : 25.000 fps\nColor space                              : YUV\nChroma subsampling                       : 4:2:0\nBit depth                                : 8 bits\nScan type                                : Progressive\nCompression mode                         : Lossy\nBits/(Pixel*Frame)                       : 0.421\nStream size                              : 1.44 GiB (83%)\nWriting library                          : XviD 1.1.2 (UTC 2006-11-01)\n\nAudio:\n\nFormat                                   : AC-3\nFormat/Info                              : Audio Coding 3\nMode extension                           : CM (complete main)\nFormat settings, Endianness              : Big\nCodec ID                                 : 2000\nDuration                                 : 1h 29mn\nSource duration                          : 1h 29mn\nBit rate mode                            : Constant\nBit rate                                 : 448 Kbps\nChannel(s)                               : 6 channels\nChannel positions                        : Front: L C R, Side: L R, LFE\nSampling rate                            : 48.0 KHz\nBit depth                                : 16 bits\nCompression mode                         : Lossy\nStream size                              : 286 MiB (16%)\nAlignment                                : Aligned on interleaves\nInterleave, duration                     : 32 ms (0.80 video frame)\nInterleave, preload duration             : 512 ms\n\n\n","torrent":{"xt":"urn:btih:98790729895ca2033c9a8201a3531fd31ce24740","amp;dn":"Spijt%21+2013+DVD9rip+Dutch+English+Klam","amp;tr":["udp%3A%2F%2Ftracker.openbittorrent.com%3A80","udp%3A%2F%2Fopen.demonii.com%3A1337","udp%3A%2F%2Ftracker.coppersurfer.tk%3A6969","udp%3A%2F%2Fexodus.desync.com%3A6969"],"infoHash":"98790729895ca2033c9a8201a3531fd31ce24740","infoHashBuffer":{"type":"Buffer","data":[152,121,7,41,137,92,162,3,60,154,130,1,163,83,31,211,28,226,71,64]},"announce":[],"urlList":[]}}